<svg data-v-423bf9ae="" xmlns="http://www.w3.org/2000/svg" viewBox="0 0 413 90" class="iconLeft"><!----><!----><!----><g data-v-423bf9ae="" id="7d6c47a1-7c80-480a-87ab-a9077247f6d8" fill="black" transform="matrix(5.560704375544397,0,0,5.560704375544397,153.56314052019175,-7.187208842523098)"><path d="M2.13 6.50L2.13 6.50L2.13 6.50Q2.13 5.42 3.06 4.70L3.06 4.70L3.06 4.70Q3.99 3.99 5.36 3.99L5.36 3.99L5.36 3.99Q6.43 3.99 7.02 4.42L7.02 4.42L7.02 4.42Q7.62 4.86 7.62 5.67L7.62 5.67L7.62 5.67Q7.62 6.30 7.30 6.69L7.30 6.69L7.30 6.69Q6.99 7.08 6.47 7.08L6.47 7.08L6.47 7.08Q6.27 7.08 6.11 7.01L6.11 7.01L6.11 7.01Q5.95 6.94 5.82 6.79L5.82 6.79L5.82 6.79Q6.10 6.62 6.28 6.29L6.28 6.29L6.28 6.29Q6.45 5.95 6.45 5.59L6.45 5.59L6.45 5.59Q6.45 5.14 6.19 4.89L6.19 4.89L6.19 4.89Q5.92 4.65 5.42 4.65L5.42 4.65L5.42 4.65Q4.82 4.65 4.47 4.98L4.47 4.98L4.47 4.98Q4.13 5.32 4.13 5.92L4.13 5.92L4.13 5.92Q4.13 6.41 4.38 6.85L4.38 6.85L4.38 6.85Q4.63 7.29 5.47 8.04L5.47 8.04L5.47 8.04Q6.58 9.00 6.93 9.71L6.93 9.71L6.93 9.71Q7.28 10.42 7.28 11.28L7.28 11.28L7.28 11.28Q7.28 12.88 6.17 13.83L6.17 13.83L6.17 13.83Q5.07 14.78 3.35 14.78L3.35 14.78L3.35 14.78Q1.97 14.78 1.18 14.15L1.18 14.15L1.18 14.15Q0.38 13.52 0.38 12.38L0.38 12.38L0.38 12.38Q0.38 11.37 0.98 10.72L0.98 10.72L0.98 10.72Q1.58 10.08 2.44 10.08L2.44 10.08L2.44 10.08Q2.97 10.08 3.30 10.32L3.30 10.32L3.30 10.32Q3.64 10.57 3.67 11.00L3.67 11.00L3.67 11.00Q2.94 11.00 2.48 11.35L2.48 11.35L2.48 11.35Q2.03 11.70 2.03 12.32L2.03 12.32L2.03 12.32Q2.03 12.91 2.39 13.29L2.39 13.29L2.39 13.29Q2.76 13.66 3.37 13.66L3.37 13.66L3.37 13.66Q4.10 13.66 4.55 13.16L4.55 13.16L4.55 13.16Q5.00 12.66 5.00 11.80L5.00 11.80L5.00 11.80Q5.00 11.14 4.70 10.54L4.70 10.54L4.70 10.54Q4.41 9.94 3.49 8.93L3.49 8.93L3.49 8.93Q2.65 8.04 2.39 7.53L2.39 7.53L2.39 7.53Q2.13 7.01 2.13 6.50ZM11.38 12.99L11.38 12.99L11.38 12.99Q11.38 12.74 11.45 12.36L11.45 12.36L11.45 12.36Q11.51 11.98 11.70 11.16L11.70 11.16L11.70 11.16Q11.90 10.36 11.96 10.01L11.96 10.01L11.96 10.01Q12.01 9.66 12.01 9.42L12.01 9.42L12.01 9.42Q12.01 9.07 11.88 8.89L11.88 8.89L11.88 8.89Q11.75 8.71 11.49 8.71L11.49 8.71L11.49 8.71Q11.16 8.71 10.84 9.11L10.84 9.11L10.84 9.11Q10.53 9.51 10.43 9.94L10.43 9.94L9.46 14.49L7.45 14.49L9.48 4.97L11.55 4.69L10.79 8.22L10.79 8.22Q11.14 7.83 11.55 7.63L11.55 7.63L11.55 7.63Q11.96 7.43 12.43 7.43L12.43 7.43L12.43 7.43Q13.17 7.43 13.58 7.84L13.58 7.84L13.58 7.84Q13.99 8.25 13.99 9.02L13.99 9.02L13.99 9.02Q13.99 9.34 13.91 9.78L13.91 9.78L13.91 9.78Q13.83 10.22 13.61 11.13L13.61 11.13L13.61 11.13Q13.43 11.84 13.37 12.14L13.37 12.14L13.37 12.14Q13.31 12.43 13.31 12.63L13.31 12.63L13.31 12.63Q13.31 12.92 13.45 13.07L13.45 13.07L13.45 13.07Q13.59 13.22 13.87 13.22L13.87 13.22L13.87 13.22Q14.22 13.22 14.48 12.98L14.48 12.98L14.48 12.98Q14.73 12.74 15.05 11.98L15.05 11.98L15.64 11.98L15.64 11.98Q15.19 13.29 14.55 13.93L14.55 13.93L14.55 13.93Q13.92 14.57 13.03 14.57L13.03 14.57L13.03 14.57Q12.25 14.57 11.82 14.15L11.82 14.15L11.82 14.15Q11.38 13.72 11.38 12.99ZM19.60 8.13L19.60 8.13L19.60 8.23L19.75 7.49L21.77 7.49L20.76 12.25L20.76 12.25Q20.73 12.38 20.72 12.48L20.72 12.48L20.72 12.48Q20.71 12.59 20.71 12.70L20.71 12.70L20.71 12.70Q20.71 13.01 20.85 13.15L20.85 13.15L20.85 13.15Q20.99 13.30 21.28 13.30L21.28 13.30L21.28 13.30Q21.64 13.30 21.94 12.96L21.94 12.96L21.94 12.96Q22.23 12.61 22.41 11.98L22.41 11.98L23.00 11.98L23.00 11.98Q22.55 13.27 21.84 13.92L21.84 13.92L21.84 13.92Q21.13 14.57 20.19 14.57L20.19 14.57L20.19 14.57Q19.59 14.57 19.23 14.24L19.23 14.24L19.23 14.24Q18.87 13.90 18.82 13.29L18.82 13.29L18.82 13.29Q18.38 13.93 17.86 14.25L17.86 14.25L17.86 14.25Q17.33 14.57 16.73 14.57L16.73 14.57L16.73 14.57Q15.86 14.57 15.37 13.99L15.37 13.99L15.37 13.99Q14.87 13.40 14.87 12.32L14.87 12.32L14.87 12.32Q14.87 11.54 15.11 10.68L15.11 10.68L15.11 10.68Q15.34 9.83 15.76 9.13L15.76 9.13L15.76 9.13Q16.28 8.30 16.97 7.86L16.97 7.86L16.97 7.86Q17.65 7.42 18.47 7.42L18.47 7.42L18.47 7.42Q19.01 7.42 19.31 7.61L19.31 7.61L19.31 7.61Q19.60 7.80 19.60 8.13ZM18.80 11.98L19.47 8.82L19.47 8.82Q19.47 8.61 19.32 8.45L19.32 8.45L19.32 8.45Q19.17 8.29 18.90 8.29L18.90 8.29L18.90 8.29Q18.13 8.29 17.54 9.58L17.54 9.58L17.54 9.58Q16.94 10.86 16.94 12.12L16.94 12.12L16.94 12.12Q16.94 12.67 17.09 12.94L17.09 12.94L17.09 12.94Q17.25 13.22 17.64 13.22L17.64 13.22L17.64 13.22Q18.00 13.22 18.35 12.87L18.35 12.87L18.35 12.87Q18.69 12.52 18.80 11.98L18.80 11.98ZM27.55 8.71L27.55 8.71L27.55 8.71Q27.55 9.87 26.60 10.73L26.60 10.73L26.60 10.73Q25.65 11.59 24.33 11.66L24.33 11.66L24.33 11.66Q24.32 11.90 24.31 12.02L24.31 12.02L24.31 12.02Q24.30 12.14 24.30 12.22L24.30 12.22L24.30 12.22Q24.30 12.87 24.52 13.13L24.52 13.13L24.52 13.13Q24.74 13.40 25.31 13.40L25.31 13.40L25.31 13.40Q25.97 13.40 26.52 13.10L26.52 13.10L26.52 13.10Q27.08 12.80 27.79 11.98L27.79 11.98L28.27 11.98L28.27 11.98Q27.45 13.30 26.50 13.94L26.50 13.94L26.50 13.94Q25.55 14.57 24.42 14.57L24.42 14.57L24.42 14.57Q23.34 14.57 22.79 14.01L22.79 14.01L22.79 14.01Q22.23 13.45 22.23 12.35L22.23 12.35L22.23 12.35Q22.23 11.55 22.48 10.65L22.48 10.65L22.48 10.65Q22.74 9.76 23.16 9.06L23.16 9.06L23.16 9.06Q23.67 8.22 24.40 7.79L24.40 7.79L24.40 7.79Q25.12 7.36 26.01 7.36L26.01 7.36L26.01 7.36Q26.78 7.36 27.17 7.69L27.17 7.69L27.17 7.69Q27.55 8.02 27.55 8.71ZM26.12 8.11L26.12 8.11L26.12 8.11Q25.65 8.11 25.17 8.95L25.17 8.95L25.17 8.95Q24.68 9.80 24.44 10.99L24.44 10.99L24.44 10.99Q25.26 10.93 25.87 10.24L25.87 10.24L25.87 10.24Q26.47 9.55 26.47 8.68L26.47 8.68L26.47 8.68Q26.47 8.39 26.39 8.25L26.39 8.25L26.39 8.25Q26.31 8.11 26.12 8.11ZM34.83 12.99L34.83 12.99L34.83 12.99Q34.83 12.74 34.90 12.36L34.90 12.36L34.90 12.36Q34.96 11.98 35.15 11.16L35.15 11.16L35.15 11.16Q35.35 10.36 35.41 10.01L35.41 10.01L35.41 10.01Q35.46 9.66 35.46 9.42L35.46 9.42L35.46 9.42Q35.46 9.07 35.34 8.89L35.34 8.89L35.34 8.89Q35.21 8.71 34.96 8.71L34.96 8.71L34.96 8.71Q34.62 8.71 34.34 9.05L34.34 9.05L34.34 9.05Q34.05 9.39 33.87 10.00L33.87 10.00L32.91 14.49L30.90 14.49L31.92 9.66L31.92 9.66Q31.95 9.58 31.96 9.49L31.96 9.49L31.96 9.49Q31.96 9.41 31.96 9.31L31.96 9.31L31.96 9.31Q31.96 9.03 31.85 8.86L31.85 8.86L31.85 8.86Q31.74 8.69 31.54 8.69L31.54 8.69L31.54 8.69Q31.18 8.69 30.88 9.04L30.88 9.04L30.88 9.04Q30.59 9.38 30.41 10.00L30.41 10.00L29.46 14.49L27.44 14.49L28.92 7.49L30.94 7.49L30.79 8.22L30.79 8.22Q31.14 7.81 31.56 7.62L31.56 7.62L31.56 7.62Q31.98 7.42 32.49 7.42L32.49 7.42L32.49 7.42Q33.11 7.42 33.47 7.72L33.47 7.72L33.47 7.72Q33.82 8.02 33.94 8.62L33.94 8.62L33.94 8.62Q34.33 8.02 34.80 7.73L34.80 7.73L34.80 7.73Q35.28 7.43 35.88 7.43L35.88 7.43L35.88 7.43Q36.62 7.43 37.03 7.84L37.03 7.84L37.03 7.84Q37.44 8.25 37.44 9.02L37.44 9.02L37.44 9.02Q37.44 9.34 37.36 9.78L37.36 9.78L37.36 9.78Q37.28 10.22 37.06 11.13L37.06 11.13L37.06 11.13Q36.88 11.84 36.82 12.14L36.82 12.14L36.82 12.14Q36.76 12.43 36.76 12.63L36.76 12.63L36.76 12.63Q36.76 12.92 36.90 13.07L36.90 13.07L36.90 13.07Q37.04 13.22 37.32 13.22L37.32 13.22L37.32 13.22Q37.67 13.22 37.93 12.98L37.93 12.98L37.93 12.98Q38.18 12.74 38.50 11.98L38.50 11.98L39.09 11.98L39.09 11.98Q38.64 13.29 38.00 13.93L38.00 13.93L38.00 13.93Q37.37 14.57 36.48 14.57L36.48 14.57L36.48 14.57Q35.70 14.57 35.27 14.15L35.27 14.15L35.27 14.15Q34.83 13.72 34.83 12.99ZM43.08 8.13L43.08 8.13L43.08 8.23L43.23 7.49L45.25 7.49L44.24 12.25L44.24 12.25Q44.21 12.38 44.20 12.48L44.20 12.48L44.20 12.48Q44.18 12.59 44.18 12.70L44.18 12.70L44.18 12.70Q44.18 13.01 44.32 13.15L44.32 13.15L44.32 13.15Q44.46 13.30 44.76 13.30L44.76 13.30L44.76 13.30Q45.12 13.30 45.42 12.96L45.42 12.96L45.42 12.96Q45.71 12.61 45.89 11.98L45.89 11.98L46.48 11.98L46.48 11.98Q46.03 13.27 45.32 13.92L45.32 13.92L45.32 13.92Q44.60 14.57 43.67 14.57L43.67 14.57L43.67 14.57Q43.06 14.57 42.71 14.24L42.71 14.24L42.71 14.24Q42.35 13.90 42.29 13.29L42.29 13.29L42.29 13.29Q41.86 13.93 41.34 14.25L41.34 14.25L41.34 14.25Q40.81 14.57 40.21 14.57L40.21 14.57L40.21 14.57Q39.34 14.57 38.84 13.99L38.84 13.99L38.84 13.99Q38.35 13.40 38.35 12.32L38.35 12.32L38.35 12.32Q38.35 11.54 38.58 10.68L38.58 10.68L38.58 10.68Q38.82 9.83 39.24 9.13L39.24 9.13L39.24 9.13Q39.76 8.30 40.45 7.86L40.45 7.86L40.45 7.86Q41.13 7.42 41.94 7.42L41.94 7.42L41.94 7.42Q42.49 7.42 42.78 7.61L42.78 7.61L42.78 7.61Q43.08 7.80 43.08 8.13ZM42.28 11.98L42.95 8.82L42.95 8.82Q42.95 8.61 42.80 8.45L42.80 8.45L42.80 8.45Q42.64 8.29 42.38 8.29L42.38 8.29L42.38 8.29Q41.61 8.29 41.01 9.58L41.01 9.58L41.01 9.58Q40.42 10.86 40.42 12.12L40.42 12.12L40.42 12.12Q40.42 12.67 40.57 12.94L40.57 12.94L40.57 12.94Q40.73 13.22 41.12 13.22L41.12 13.22L41.12 13.22Q41.48 13.22 41.82 12.87L41.82 12.87L41.82 12.87Q42.17 12.52 42.28 11.98L42.28 11.98Z"></path></g><!----><g data-v-423bf9ae="" id="ca322a12-bef1-4e5e-85e2-dfaab1065c1f" transform="matrix(1.5058400627024875,0,0,1.5058400627024875,-7.342007634102217,-30.23450558855582)" stroke="none" fill="black"><path d="M21.8 39.3c1-1 1-2.6 0-3.5-1-1-2.6-1-3.5 0L5.7 48.2c-1 1-1 2.6 0 3.5l12.5 12.5c.5.5 1.1.7 1.8.7s1.3-.2 1.8-.7c1-1 1-2.6 0-3.5L20 59l-9-9 9-9 1.8-1.7zM81.8 35.7c-1-1-2.6-1-3.5 0-1 1-1 2.6 0 3.5L80 41l9 9-9 9-1.8 1.8c-1 1-1 2.6 0 3.5.5.5 1.1.7 1.8.7s1.3-.2 1.8-.7l12.5-12.5c1-1 1-2.6 0-3.5L81.8 35.7zM54.9 61.5c-1.2-.7-2.7-.3-3.4.9l-5 8.7c-1 1.7-2.6 3-4.6 3.5-1.9.5-4 .3-5.7-.7-3.6-2.1-4.8-6.7-2.7-10.2l7.5-13c1-1.7 2.6-3 4.6-3.5 1.9-.5 4-.3 5.7.7 1.2.7 2.7.3 3.4-.9.7-1.2.3-2.7-.9-3.4-2.9-1.7-6.3-2.1-9.5-1.2-3.2.9-5.9 2.9-7.6 5.8l-7.5 13c-3.4 6-1.4 13.6 4.6 17.1 1.9 1.1 4.1 1.7 6.2 1.7 1.1 0 2.2-.1 3.3-.4 3.2-.9 5.9-2.9 7.6-5.8l5-8.7c.6-1.4.2-2.9-1-3.6z"></path><path d="M66.3 21.9c-2.9-1.7-6.3-2.1-9.5-1.2-3.2.9-5.9 2.9-7.6 5.8l-5 8.7c-.7 1.2-.3 2.7.9 3.4s2.7.3 3.4-.9l5-8.7c1-1.7 2.6-3 4.6-3.5 1.9-.5 4-.3 5.7.7 3.6 2.1 4.8 6.7 2.7 10.2l-7.5 13c-1 1.7-2.6 3-4.6 3.5-1.9.5-4 .3-5.7-.7-1.2-.7-2.7-.3-3.4.9-.7 1.2-.3 2.7.9 3.4 1.9 1.1 4.1 1.7 6.2 1.7 1.1 0 2.2-.1 3.3-.4 3.2-.9 5.9-2.9 7.6-5.8l7.5-13c3.5-6 1.4-13.7-4.5-17.1z"></path></g><!----></svg>